ffmpeg started on 2026-01-20 at 18:53:41
Report written to "D:\Convert\FFMetrics\reports\psnr_report-6.txt"
Log level: 32
Command line:
ffmpeg -hide_banner -nostdin -r 24000/1001 -i "F:\\Convert\\files\\[DC] Make Heroine ga Oosugiru - 07_Telegram_HEVC(218).mkv" -r 24000/1001 -i "F:\\Convert\\files\\[DC] Make Heroine ga Oosugiru - 07_Telegram.mp4" -lavfi "[0:v]settb=AVTB,setpts=PTS-STARTPTS,format=pix_fmts=yuv420p10le,fps=24000/1001,scale=1920:1080:flags=lanczos:param0=3:out_range=limited:out_color_matrix=bt709:out_chroma_loc=left,setsar=1/1,setdar=(1920/1080)*(1/1),colorspace=format=yuv420p10:range=tv:primaries=bt709:trc=bt709:space=bt709:fast=0[main];[1:v]settb=AVTB,setpts=PTS-STARTPTS,format=pix_fmts=yuv420p,fps=24000/1001,scale=1920:1080:flags=lanczos:param0=3:out_range=limited:out_color_matrix=bt709:out_chroma_loc=left,setsar=1.000,setdar=1.778,colorspace=format=yuv420p:range=tv:primaries=bt709:trc=bt709:space=bt709:fast=0[ref];[main][ref]psnr=eof_action=endall:stats_file='D\\:/Convert/FFMetrics/logs/psnr_logfile-6.txt'" -f null -
Input #0, matroska,webm, from 'F:\Convert\files\[DC] Make Heroine ga Oosugiru - 07_Telegram_HEVC(218).mkv':
  Metadata:
    COMPATIBLE_BRANDS: isomiso2avc1mp41
    MAJOR_BRAND     : isom
    MINOR_VERSION   : 512
    ENCODER         : Lavf61.7.100
  Duration: 00:24:06.79, start: -0.021000, bitrate: 942 kb/s
  Stream #0:0: Video: hevc (Main 10), yuv420p10le(tv, bt709, progressive), 1920x1080 [SAR 1:1 DAR 16:9], 23.98 fps, 23.98 tbr, 1k tbn (default)
      Metadata:
        HANDLER_NAME    : VideoHandler
        VENDOR_ID       : [0][0][0][0]
        ENCODER         : Lavc61.19.100 libx265
        BPS             : 745863
        DURATION        : 00:24:06.569708333
        NUMBER_OF_FRAMES: 34683
        NUMBER_OF_BYTES : 134867893
        _STATISTICS_WRITING_APP: mkvpropedit v94.0 ('Initiate') 64-bit
        _STATISTICS_WRITING_DATE_UTC: 2026-01-20 14:38:35
        _STATISTICS_TAGS: BPS DURATION NUMBER_OF_FRAMES NUMBER_OF_BYTES
  Stream #0:1: Audio: aac (LC), 48000 Hz, stereo, fltp (default)
      Metadata:
        HANDLER_NAME    : SoundHandler
        VENDOR_ID       : [0][0][0][0]
        ENCODER         : Lavc61.19.100 aac
        BPS             : 193194
        DURATION        : 00:24:06.784000000
        NUMBER_OF_FRAMES: 67819
        NUMBER_OF_BYTES : 34938755
        _STATISTICS_WRITING_APP: mkvpropedit v94.0 ('Initiate') 64-bit
        _STATISTICS_WRITING_DATE_UTC: 2026-01-20 14:38:35
        _STATISTICS_TAGS: BPS DURATION NUMBER_OF_FRAMES NUMBER_OF_BYTES
Input #1, mov,mp4,m4a,3gp,3g2,mj2, from 'F:\Convert\files\[DC] Make Heroine ga Oosugiru - 07_Telegram.mp4':
  Metadata:
    major_brand     : isom
    minor_version   : 512
    compatible_brands: isomiso2avc1mp41
    encoder         : Lavf60.16.100
  Duration: 00:24:06.74, start: 0.000000, bitrate: 3764 kb/s
  Stream #1:0[0x1](und): Video: h264 (High) (avc1 / 0x31637661), yuv420p(tv, bt709, progressive), 1920x1080 [SAR 1:1 DAR 16:9], 3616 kb/s, 23.98 fps, 23.98 tbr, 24k tbn (default)
      Metadata:
        handler_name    : VideoHandler
        vendor_id       : [0][0][0][0]
        encoder         : Lavc60.31.102 h264_qsv
  Stream #1:1[0x2](und): Audio: aac (HE-AACv2) (mp4a / 0x6134706D), 48000 Hz, stereo, fltp, 144 kb/s (default)
      Metadata:
        handler_name    : SoundHandler
        vendor_id       : [0][0][0][0]
Stream mapping:
  Stream #0:0 (hevc) -> settb:default
  Stream #1:0 (h264) -> settb:default
  psnr:default -> Stream #0:0 (wrapped_avframe)
  Stream #0:1 -> #0:1 (aac (native) -> pcm_s16le (native))
Output #0, null, to 'pipe:':
  Metadata:
    COMPATIBLE_BRANDS: isomiso2avc1mp41
    MAJOR_BRAND     : isom
    MINOR_VERSION   : 512
    encoder         : Lavf61.7.100
  Stream #0:0: Video: wrapped_avframe, yuv420p10le(tv, bt709, progressive), 1920x1080 [SAR 1:1 DAR 16:9], q=2-31, 200 kb/s, 23.98 fps, 23.98 tbn
      Metadata:
        encoder         : Lavc61.19.100 wrapped_avframe
  Stream #0:1: Audio: pcm_s16le, 48000 Hz, stereo, s16, 1536 kb/s (default)
      Metadata:
        HANDLER_NAME    : SoundHandler
        VENDOR_ID       : [0][0][0][0]
        _STATISTICS_TAGS: BPS DURATION NUMBER_OF_FRAMES NUMBER_OF_BYTES
        BPS             : 193194
        DURATION        : 00:24:06.784000000
        NUMBER_OF_FRAMES: 67819
        NUMBER_OF_BYTES : 34938755
        _STATISTICS_WRITING_APP: mkvpropedit v94.0 ('Initiate') 64-bit
        _STATISTICS_WRITING_DATE_UTC: 2026-01-20 14:38:35
        encoder         : Lavc61.19.100 pcm_s16le
frame=  135 fps=0.0 q=-0.0 size=N/A time=00:00:05.63 bitrate=N/A speed=10.9x    frame=  317 fps=310 q=-0.0 size=N/A time=00:00:13.22 bitrate=N/A speed=12.9x    frame=  509 fps=332 q=-0.0 size=N/A time=00:00:21.22 bitrate=N/A speed=13.8x    frame=  696 fps=338 q=-0.0 size=N/A time=00:00:29.02 bitrate=N/A speed=14.1x    frame=  877 fps=341 q=-0.0 size=N/A time=00:00:36.57 bitrate=N/A speed=14.2x    frame= 1014 fps=329 q=-0.0 size=N/A time=00:00:42.29 bitrate=N/A speed=13.7x    frame= 1175 fps=326 q=-0.0 size=N/A time=00:00:49.00 bitrate=N/A speed=13.6x    frame= 1333 fps=323 q=-0.0 size=N/A time=00:00:55.59 bitrate=N/A speed=13.5x    frame= 1490 fps=322 q=-0.0 size=N/A time=00:01:02.14 bitrate=N/A speed=13.4x    frame= 1634 fps=318 q=-0.0 size=N/A time=00:01:08.15 bitrate=N/A speed=13.2x    frame= 1794 fps=316 q=-0.0 size=N/A time=00:01:14.82 bitrate=N/A speed=13.2x    frame= 1953 fps=316 q=-0.0 size=N/A time=00:01:21.45 bitrate=N/A speed=13.2x    frame= 2083 fps=311 q=-0.0 size=N/A time=00:01:26.87 bitrate=N/A speed=  13x    frame= 2226 fps=309 q=-0.0 size=N/A time=00:01:32.84 bitrate=N/A speed=12.9x    frame= 2380 fps=308 q=-0.0 size=N/A time=00:01:39.26 bitrate=N/A speed=12.8x    frame= 2512 fps=305 q=-0.0 size=N/A time=00:01:44.77 bitrate=N/A speed=12.7x    frame= 2674 fps=306 q=-0.0 size=N/A time=00:01:51.52 bitrate=N/A speed=12.7x    frame= 2857 fps=308 q=-0.0 size=N/A time=00:01:59.16 bitrate=N/A speed=12.8x    frame= 3039 fps=310 q=-0.0 size=N/A time=00:02:06.75 bitrate=N/A speed=12.9x    frame= 3230 fps=314 q=-0.0 size=N/A time=00:02:14.71 bitrate=N/A speed=13.1x    frame= 3433 fps=317 q=-0.0 size=N/A time=00:02:23.18 bitrate=N/A speed=13.2x    frame= 3622 fps=320 q=-0.0 size=N/A time=00:02:31.06 bitrate=N/A speed=13.3x    frame= 3815 fps=322 q=-0.0 size=N/A time=00:02:39.11 bitrate=N/A speed=13.4x    frame= 4018 fps=325 q=-0.0 size=N/A time=00:02:47.58 bitrate=N/A speed=13.5x    frame= 4204 fps=326 q=-0.0 size=N/A time=00:02:55.34 bitrate=N/A speed=13.6x    frame= 4397 fps=328 q=-0.0 size=N/A time=00:03:03.39 bitrate=N/A speed=13.7x    frame= 4602 fps=331 q=-0.0 size=N/A time=00:03:11.94 bitrate=N/A speed=13.8x    frame= 4801 fps=333 q=-0.0 size=N/A time=00:03:20.24 bitrate=N/A speed=13.9x    frame= 4989 fps=334 q=-0.0 size=N/A time=00:03:28.08 bitrate=N/A speed=13.9x    frame= 5189 fps=335 q=-0.0 size=N/A time=00:03:36.42 bitrate=N/A speed=  14x    frame= 5383 fps=337 q=-0.0 size=N/A time=00:03:44.51 bitrate=N/A speed=14.1x    frame= 5576 fps=338 q=-0.0 size=N/A time=00:03:52.56 bitrate=N/A speed=14.1x    frame= 5770 fps=339 q=-0.0 size=N/A time=00:04:00.65 bitrate=N/A speed=14.1x    frame= 5970 fps=341 q=-0.0 size=N/A time=00:04:08.99 bitrate=N/A speed=14.2x    frame= 6160 fps=342 q=-0.0 size=N/A time=00:04:16.92 bitrate=N/A speed=14.2x    frame= 6349 fps=342 q=-0.0 size=N/A time=00:04:24.80 bitrate=N/A speed=14.3x    frame= 6543 fps=343 q=-0.0 size=N/A time=00:04:32.89 bitrate=N/A speed=14.3x    frame= 6740 fps=344 q=-0.0 size=N/A time=00:04:41.11 bitrate=N/A speed=14.4x    frame= 6939 fps=345 q=-0.0 size=N/A time=00:04:49.41 bitrate=N/A speed=14.4x    frame= 7128 fps=346 q=-0.0 size=N/A time=00:04:57.29 bitrate=N/A speed=14.4x    frame= 7318 fps=346 q=-0.0 size=N/A time=00:05:05.22 bitrate=N/A speed=14.4x    frame= 7516 fps=347 q=-0.0 size=N/A time=00:05:13.47 bitrate=N/A speed=14.5x    frame= 7700 fps=347 q=-0.0 size=N/A time=00:05:21.15 bitrate=N/A speed=14.5x    frame= 7892 fps=348 q=-0.0 size=N/A time=00:05:29.16 bitrate=N/A speed=14.5x    frame= 8085 fps=348 q=-0.0 size=N/A time=00:05:37.21 bitrate=N/A speed=14.5x    frame= 8278 fps=349 q=-0.0 size=N/A time=00:05:45.26 bitrate=N/A speed=14.6x    frame= 8472 fps=350 q=-0.0 size=N/A time=00:05:53.35 bitrate=N/A speed=14.6x    frame= 8662 fps=350 q=-0.0 size=N/A time=00:06:01.27 bitrate=N/A speed=14.6x    frame= 8853 fps=351 q=-0.0 size=N/A time=00:06:09.24 bitrate=N/A speed=14.6x    frame= 9049 fps=351 q=-0.0 size=N/A time=00:06:17.41 bitrate=N/A speed=14.6x    frame= 9243 fps=352 q=-0.0 size=N/A time=00:06:25.51 bitrate=N/A speed=14.7x    frame= 9429 fps=352 q=-0.0 size=N/A time=00:06:33.26 bitrate=N/A speed=14.7x    frame= 9624 fps=352 q=-0.0 size=N/A time=00:06:41.40 bitrate=N/A speed=14.7x    frame= 9819 fps=353 q=-0.0 size=N/A time=00:06:49.53 bitrate=N/A speed=14.7x    frame=10013 fps=353 q=-0.0 size=N/A time=00:06:57.62 bitrate=N/A speed=14.7x    frame=10197 fps=353 q=-0.0 size=N/A time=00:07:05.29 bitrate=N/A speed=14.7x    frame=10391 fps=354 q=-0.0 size=N/A time=00:07:13.39 bitrate=N/A speed=14.8x    frame=10586 fps=354 q=-0.0 size=N/A time=00:07:21.52 bitrate=N/A speed=14.8x    frame=10768 fps=354 q=-0.0 size=N/A time=00:07:29.11 bitrate=N/A speed=14.8x    frame=10959 fps=354 q=-0.0 size=N/A time=00:07:37.08 bitrate=N/A speed=14.8x    frame=11155 fps=355 q=-0.0 size=N/A time=00:07:45.25 bitrate=N/A speed=14.8x    frame=11343 fps=355 q=-0.0 size=N/A time=00:07:53.09 bitrate=N/A speed=14.8x    frame=11534 fps=355 q=-0.0 size=N/A time=00:08:01.06 bitrate=N/A speed=14.8x    frame=11733 fps=356 q=-0.0 size=N/A time=00:08:09.36 bitrate=N/A speed=14.8x    frame=11925 fps=356 q=-0.0 size=N/A time=00:08:17.37 bitrate=N/A speed=14.8x    frame=12119 fps=356 q=-0.0 size=N/A time=00:08:25.46 bitrate=N/A speed=14.9x    frame=12311 fps=356 q=-0.0 size=N/A time=00:08:33.47 bitrate=N/A speed=14.9x    frame=12499 fps=357 q=-0.0 size=N/A time=00:08:41.31 bitrate=N/A speed=14.9x    frame=12697 fps=357 q=-0.0 size=N/A time=00:08:49.57 bitrate=N/A speed=14.9x    frame=12896 fps=357 q=-0.0 size=N/A time=00:08:57.87 bitrate=N/A speed=14.9x    frame=13081 fps=357 q=-0.0 size=N/A time=00:09:05.58 bitrate=N/A speed=14.9x    frame=13279 fps=358 q=-0.0 size=N/A time=00:09:13.84 bitrate=N/A speed=14.9x    frame=13474 fps=358 q=-0.0 size=N/A time=00:09:21.97 bitrate=N/A speed=14.9x    frame=13663 fps=358 q=-0.0 size=N/A time=00:09:29.86 bitrate=N/A speed=14.9x    frame=13854 fps=358 q=-0.0 size=N/A time=00:09:37.82 bitrate=N/A speed=14.9x    frame=14042 fps=358 q=-0.0 size=N/A time=00:09:45.66 bitrate=N/A speed=  15x    frame=14224 fps=358 q=-0.0 size=N/A time=00:09:53.25 bitrate=N/A speed=14.9x    frame=14420 fps=359 q=-0.0 size=N/A time=00:10:01.43 bitrate=N/A speed=  15x    frame=14607 fps=359 q=-0.0 size=N/A time=00:10:09.23 bitrate=N/A speed=  15x    frame=14802 fps=359 q=-0.0 size=N/A time=00:10:17.36 bitrate=N/A speed=  15x    frame=14997 fps=359 q=-0.0 size=N/A time=00:10:25.49 bitrate=N/A speed=  15x    frame=15164 fps=359 q=-0.0 size=N/A time=00:10:32.46 bitrate=N/A speed=  15x    frame=15346 fps=359 q=-0.0 size=N/A time=00:10:40.05 bitrate=N/A speed=  15x    frame=15548 fps=359 q=-0.0 size=N/A time=00:10:48.48 bitrate=N/A speed=  15x    frame=15740 fps=359 q=-0.0 size=N/A time=00:10:56.48 bitrate=N/A speed=  15x    frame=15933 fps=359 q=-0.0 size=N/A time=00:11:04.53 bitrate=N/A speed=  15x    frame=16124 fps=359 q=-0.0 size=N/A time=00:11:12.50 bitrate=N/A speed=  15x    frame=16327 fps=360 q=-0.0 size=N/A time=00:11:20.97 bitrate=N/A speed=  15x    frame=16514 fps=360 q=-0.0 size=N/A time=00:11:28.77 bitrate=N/A speed=  15x    frame=16708 fps=360 q=-0.0 size=N/A time=00:11:36.86 bitrate=N/A speed=  15x    frame=16897 fps=360 q=-0.0 size=N/A time=00:11:44.74 bitrate=N/A speed=  15x    frame=17092 fps=360 q=-0.0 size=N/A time=00:11:52.87 bitrate=N/A speed=  15x    frame=17287 fps=360 q=-0.0 size=N/A time=00:12:01.01 bitrate=N/A speed=  15x    frame=17480 fps=361 q=-0.0 size=N/A time=00:12:09.06 bitrate=N/A speed=  15x    frame=17676 fps=361 q=-0.0 size=N/A time=00:12:17.23 bitrate=N/A speed=  15x    frame=17869 fps=361 q=-0.0 size=N/A time=00:12:25.28 bitrate=N/A speed=15.1x    frame=18056 fps=361 q=-0.0 size=N/A time=00:12:33.08 bitrate=N/A speed=15.1x    frame=18237 fps=361 q=-0.0 size=N/A time=00:12:40.63 bitrate=N/A speed=15.1x    frame=18427 fps=361 q=-0.0 size=N/A time=00:12:48.55 bitrate=N/A speed=15.1x    frame=18623 fps=361 q=-0.0 size=N/A time=00:12:56.73 bitrate=N/A speed=15.1x    frame=18810 fps=361 q=-0.0 size=N/A time=00:13:04.53 bitrate=N/A speed=15.1x    frame=19010 fps=361 q=-0.0 size=N/A time=00:13:12.87 bitrate=N/A speed=15.1x    frame=19207 fps=362 q=-0.0 size=N/A time=00:13:21.09 bitrate=N/A speed=15.1x    frame=19402 fps=362 q=-0.0 size=N/A time=00:13:29.22 bitrate=N/A speed=15.1x    frame=19603 fps=362 q=-0.0 size=N/A time=00:13:37.60 bitrate=N/A speed=15.1x    frame=19791 fps=362 q=-0.0 size=N/A time=00:13:45.44 bitrate=N/A speed=15.1x    frame=19995 fps=362 q=-0.0 size=N/A time=00:13:53.95 bitrate=N/A speed=15.1x    frame=20191 fps=362 q=-0.0 size=N/A time=00:14:02.13 bitrate=N/A speed=15.1x    frame=20379 fps=362 q=-0.0 size=N/A time=00:14:09.97 bitrate=N/A speed=15.1x    frame=20569 fps=362 q=-0.0 size=N/A time=00:14:17.89 bitrate=N/A speed=15.1x    frame=20753 fps=362 q=-0.0 size=N/A time=00:14:25.57 bitrate=N/A speed=15.1x    frame=20947 fps=363 q=-0.0 size=N/A time=00:14:33.66 bitrate=N/A speed=15.1x    frame=21144 fps=363 q=-0.0 size=N/A time=00:14:41.88 bitrate=N/A speed=15.1x    frame=21334 fps=363 q=-0.0 size=N/A time=00:14:49.80 bitrate=N/A speed=15.1x    frame=21531 fps=363 q=-0.0 size=N/A time=00:14:58.02 bitrate=N/A speed=15.1x    frame=21719 fps=363 q=-0.0 size=N/A time=00:15:05.86 bitrate=N/A speed=15.1x    frame=21920 fps=363 q=-0.0 size=N/A time=00:15:14.24 bitrate=N/A speed=15.1x    frame=22116 fps=363 q=-0.0 size=N/A time=00:15:22.42 bitrate=N/A speed=15.2x    frame=22307 fps=363 q=-0.0 size=N/A time=00:15:30.38 bitrate=N/A speed=15.2x    frame=22503 fps=364 q=-0.0 size=N/A time=00:15:38.56 bitrate=N/A speed=15.2x    frame=22693 fps=364 q=-0.0 size=N/A time=00:15:46.48 bitrate=N/A speed=15.2x    frame=22890 fps=364 q=-0.0 size=N/A time=00:15:54.70 bitrate=N/A speed=15.2x    frame=23083 fps=364 q=-0.0 size=N/A time=00:16:02.75 bitrate=N/A speed=15.2x    frame=23275 fps=364 q=-0.0 size=N/A time=00:16:10.76 bitrate=N/A speed=15.2x    frame=23472 fps=364 q=-0.0 size=N/A time=00:16:18.97 bitrate=N/A speed=15.2x    frame=23673 fps=364 q=-0.0 size=N/A time=00:16:27.36 bitrate=N/A speed=15.2x    frame=23867 fps=364 q=-0.0 size=N/A time=00:16:35.45 bitrate=N/A speed=15.2x    frame=24066 fps=365 q=-0.0 size=N/A time=00:16:43.75 bitrate=N/A speed=15.2x    frame=24257 fps=365 q=-0.0 size=N/A time=00:16:51.71 bitrate=N/A speed=15.2x    frame=24455 fps=365 q=-0.0 size=N/A time=00:16:59.97 bitrate=N/A speed=15.2x    frame=24648 fps=365 q=-0.0 size=N/A time=00:17:08.02 bitrate=N/A speed=15.2x    frame=24848 fps=365 q=-0.0 size=N/A time=00:17:16.36 bitrate=N/A speed=15.2x    frame=25039 fps=365 q=-0.0 size=N/A time=00:17:24.33 bitrate=N/A speed=15.2x    frame=25238 fps=365 q=-0.0 size=N/A time=00:17:32.63 bitrate=N/A speed=15.2x    frame=25436 fps=365 q=-0.0 size=N/A time=00:17:40.89 bitrate=N/A speed=15.2x    frame=25630 fps=365 q=-0.0 size=N/A time=00:17:48.98 bitrate=N/A speed=15.2x    frame=25821 fps=365 q=-0.0 size=N/A time=00:17:56.95 bitrate=N/A speed=15.2x    frame=26022 fps=366 q=-0.0 size=N/A time=00:18:05.33 bitrate=N/A speed=15.2x    frame=26214 fps=366 q=-0.0 size=N/A time=00:18:13.34 bitrate=N/A speed=15.2x    frame=26401 fps=366 q=-0.0 size=N/A time=00:18:21.14 bitrate=N/A speed=15.2x    frame=26604 fps=366 q=-0.0 size=N/A time=00:18:29.60 bitrate=N/A speed=15.3x    frame=26799 fps=366 q=-0.0 size=N/A time=00:18:37.74 bitrate=N/A speed=15.3x    frame=26982 fps=366 q=-0.0 size=N/A time=00:18:45.37 bitrate=N/A speed=15.3x    frame=27172 fps=366 q=-0.0 size=N/A time=00:18:53.29 bitrate=N/A speed=15.3x    frame=27361 fps=366 q=-0.0 size=N/A time=00:19:01.18 bitrate=N/A speed=15.3x    frame=27547 fps=366 q=-0.0 size=N/A time=00:19:08.93 bitrate=N/A speed=15.3x    frame=27741 fps=366 q=-0.0 size=N/A time=00:19:17.03 bitrate=N/A speed=15.3x    frame=27936 fps=366 q=-0.0 size=N/A time=00:19:25.16 bitrate=N/A speed=15.3x    frame=28126 fps=366 q=-0.0 size=N/A time=00:19:33.08 bitrate=N/A speed=15.3x    frame=28318 fps=366 q=-0.0 size=N/A time=00:19:41.09 bitrate=N/A speed=15.3x    frame=28511 fps=366 q=-0.0 size=N/A time=00:19:49.14 bitrate=N/A speed=15.3x    frame=28704 fps=366 q=-0.0 size=N/A time=00:19:57.19 bitrate=N/A speed=15.3x    frame=28873 fps=366 q=-0.0 size=N/A time=00:20:04.24 bitrate=N/A speed=15.3x    frame=29043 fps=366 q=-0.0 size=N/A time=00:20:11.33 bitrate=N/A speed=15.2x    frame=29224 fps=366 q=-0.0 size=N/A time=00:20:18.88 bitrate=N/A speed=15.2x    frame=29411 fps=365 q=-0.0 size=N/A time=00:20:26.68 bitrate=N/A speed=15.2x    frame=29580 fps=365 q=-0.0 size=N/A time=00:20:33.73 bitrate=N/A speed=15.2x    frame=29762 fps=365 q=-0.0 size=N/A time=00:20:41.32 bitrate=N/A speed=15.2x    frame=29944 fps=365 q=-0.0 size=N/A time=00:20:48.91 bitrate=N/A speed=15.2x    frame=30108 fps=365 q=-0.0 size=N/A time=00:20:55.75 bitrate=N/A speed=15.2x    frame=30298 fps=365 q=-0.0 size=N/A time=00:21:03.67 bitrate=N/A speed=15.2x    frame=30490 fps=365 q=-0.0 size=N/A time=00:21:11.68 bitrate=N/A speed=15.2x    frame=30687 fps=365 q=-0.0 size=N/A time=00:21:19.90 bitrate=N/A speed=15.2x    frame=30878 fps=365 q=-0.0 size=N/A time=00:21:27.86 bitrate=N/A speed=15.2x    frame=31064 fps=365 q=-0.0 size=N/A time=00:21:35.62 bitrate=N/A speed=15.2x    frame=31262 fps=365 q=-0.0 size=N/A time=00:21:43.88 bitrate=N/A speed=15.2x    frame=31449 fps=365 q=-0.0 size=N/A time=00:21:51.68 bitrate=N/A speed=15.2x    frame=31642 fps=365 q=-0.0 size=N/A time=00:21:59.73 bitrate=N/A speed=15.2x    frame=31821 fps=365 q=-0.0 size=N/A time=00:22:07.20 bitrate=N/A speed=15.2x    frame=32009 fps=365 q=-0.0 size=N/A time=00:22:15.04 bitrate=N/A speed=15.2x    frame=32202 fps=365 q=-0.0 size=N/A time=00:22:23.09 bitrate=N/A speed=15.2x    frame=32394 fps=365 q=-0.0 size=N/A time=00:22:31.09 bitrate=N/A speed=15.2x    frame=32589 fps=365 q=-0.0 size=N/A time=00:22:39.23 bitrate=N/A speed=15.2x    frame=32742 fps=365 q=-0.0 size=N/A time=00:22:45.61 bitrate=N/A speed=15.2x    frame=32901 fps=364 q=-0.0 size=N/A time=00:22:52.24 bitrate=N/A speed=15.2x    frame=33090 fps=364 q=-0.0 size=N/A time=00:23:00.12 bitrate=N/A speed=15.2x    frame=33280 fps=364 q=-0.0 size=N/A time=00:23:08.05 bitrate=N/A speed=15.2x    frame=33455 fps=364 q=-0.0 size=N/A time=00:23:15.35 bitrate=N/A speed=15.2x    frame=33607 fps=364 q=-0.0 size=N/A time=00:23:21.69 bitrate=N/A speed=15.2x    frame=33754 fps=363 q=-0.0 size=N/A time=00:23:27.82 bitrate=N/A speed=15.2x    frame=33882 fps=363 q=-0.0 size=N/A time=00:23:33.16 bitrate=N/A speed=15.1x    frame=34049 fps=363 q=-0.0 size=N/A time=00:23:40.12 bitrate=N/A speed=15.1x    frame=34210 fps=362 q=-0.0 size=N/A time=00:23:46.84 bitrate=N/A speed=15.1x    frame=34350 fps=362 q=-0.0 size=N/A time=00:23:52.68 bitrate=N/A speed=15.1x    frame=34492 fps=361 q=-0.0 size=N/A time=00:23:58.60 bitrate=N/A speed=15.1x    [Parsed_psnr_16 @ 0000021474a4ba40] PSNR y:48.763295 u:50.290210 v:50.342394 average:49.221883 min:37.983988 max:inf
[out#0/null @ 00000214675c8a00] video:14903KiB audio:271276KiB subtitle:0KiB other streams:0KiB global headers:0KiB muxing overhead: unknown
frame=34683 fps=361 q=-0.0 Lsize=N/A time=00:24:06.57 bitrate=N/A speed=15.1x    
